<?xml version="1.0"?>
<svg xmlns="http://www.w3.org/2000/svg" xmlns:xlink="http://www.w3.org/1999/xlink" xmlns:svgjs="http://svgjs.com/svgjs" version="1.1" width="512" height="512" x="0" y="0" viewBox="0 0 128 128" style="enable-background:new 0 0 512 512" xml:space="preserve" class=""><g><g xmlns="http://www.w3.org/2000/svg"><path d="m123.134 92.636a1.758 1.758 0 0 0 -1.644-1.136h-.027c-.074 0-4.744.031-21.862-3.465a70.771 70.771 0 0 1 -11.095-3.293c2.855-2.925 4.368-6.329 4.237-9.6 5.819-3.209 7.294-8.362 6.888-11.859a9.785 9.785 0 0 0 4.807-5.937 14.6 14.6 0 0 0 -.123-8.692 12.564 12.564 0 0 0 5.885-10.973 10.536 10.536 0 0 0 -4.08-8.681c1.164-3.927 3.414-14.858-4.125-23.642a1.75 1.75 0 0 0 -2.9.37c-8.195 16.739-14.752 24.241-21.349 29.518-3.062-12.246-8.912-21.029-13.329-24.181a1.751 1.751 0 0 0 -2.728 1.056c-5.189 24.07-11.518 31.819-18.235 39.249a20.629 20.629 0 0 0 -6.213-1.978c-6.254-.87-13.5 2.213-20.52 5.192a79.1 79.1 0 0 1 -10.653 3.97 1.75 1.75 0 0 0 -.355 3.259c.1.051 10.171 5.213 11.558 13.961 3.021 19.043 19.423 38.468 36.876 35.955 34.415-5.422 40.419 1.41 48.024 10.058l.767.872a1.75 1.75 0 0 0 3.062-1.208c-.347-12.371 16.46-26.721 16.63-26.864a1.749 1.749 0 0 0 .504-1.951zm-58.676-76.861c3.79 4.053 8.023 11.991 10.234 21.775-1.52 1.087-3.056 2.116-4.627 3.168a90.789 90.789 0 0 0 -18.986 15.917 38.045 38.045 0 0 0 -4.513-3.489c6.334-7.046 12.749-15.265 17.892-37.371zm38.427 101.548c-5.476-6.02-11.58-11-28.067-11a138.216 138.216 0 0 0 -21.192 1.944c-15.5 2.244-30.132-15.609-32.9-33.042-1.105-6.963-6.445-11.859-10.057-14.437 2.38-.845 4.851-1.894 7.416-2.983 6.58-2.793 13.375-5.684 18.672-4.948 5.266.732 10.095 4.5 13.219 7.537a1.752 1.752 0 0 0 2.542-.108c7.5-8.632 13.594-12.713 19.492-16.66 1.884-1.261 3.748-2.511 5.617-3.888.014-.009.026-.019.04-.029 7.2-5.309 14.472-12.545 23.286-29.87 5.443 8.734 1.459 19.24 1.416 19.351a1.75 1.75 0 0 0 .974 2.265c2.008.81 3.326 3.267 3.355 6.26a9 9 0 0 1 -5.388 8.55 1.748 1.748 0 0 0 -.731 2.634c.689.954 1.474 4.335.515 7.4a6.293 6.293 0 0 1 -4.051 4.3 1.75 1.75 0 0 0 -1.078 2.213c.67 1.979.127 6.959-5.83 9.726a1.751 1.751 0 0 0 -.985 1.9c.561 3.1-1.306 6.65-4.992 9.489a1.75 1.75 0 0 0 .39 3 77.3 77.3 0 0 0 14.352 4.538c9.389 1.917 15.129 2.8 18.482 3.2-4.495 4.386-12.627 13.387-14.497 22.658z" fill="#f57c00" data-original="#000000" style="" class=""/><path d="m30.564 85.913a1.75 1.75 0 1 0 -3.113 1.6 44.521 44.521 0 0 0 5.929 8.84 1.749 1.749 0 0 0 2.644-2.291 41.149 41.149 0 0 1 -5.46-8.149z" fill="#f57c00" data-original="#000000" style="" class=""/></g></g></svg>
